Coordinates
version=1
nRows=6
nColumns=107
inDegrees=yes

Units are S.I. units (second, meters, Newtons, ...)
If the header above contains a line with 'inDegrees', this indicates whether rotational values are in degrees (yes) or radians (no).

endheader
time	sternoclavicular_r2	sternoclavicular_r3	unrotscap_r3	unrotscap_r2	acromioclavicular_r2	acromioclavicular_r3	acromioclavicular_r1	unrothum_r1	unrothum_r3	unrothum_r2	elv_angle	shoulder_elv	shoulder1_r2	shoulder_rot	elbow_flexion	pro_sup	deviation	flexion	proximal_distal_r1	proximal_distal_r3	cmc_flexion	cmc_abduction	mp_flexion	ip_flexion	mcp2_flexion	mcp2_abduction	pm2_flexion	md2_flexion	mcp3_flexion	mcp3_abduction	pm3_flexion	md3_flexion	mcp4_flexion	mcp4_abduction	pm4_flexion	md4_flexion	mcp5_flexion	mcp5_abduction	pm5_flexion	md5_flexion	bicpt_tx	bicpt_ty	bicpt_tz	bicpt2_tx	bicpt2_ty	bicpt2_tz	ptpt_tx	ptpt_ty	ptpt_tz	FCUpt_tx	FCUpt_ty	FCUpt_tz	EDCpt_tx	EDCpt_ty	EDCpt_tz	APLpt_tx	APLpt_ty	APLpt_tz	FPLpt_tx	FPLpt_ty	FPLpt_tz	FPLpt2_tx	FPLpt2_ty	FPLpt2_tz	PEC1pt2_tx	PEC1pt2_ty	PEC1pt2_tz	PEC1pt3_tx	PEC1pt3_ty	PEC1pt3_tz	PEC2pt2_tx	PEC2pt2_ty	PEC2pt2_tz	PEC2pt3_tx	PEC2pt3_ty	PEC2pt3_tz	PEC3pt2_tx	PEC3pt2_ty	PEC3pt2_tz	PEC3pt3_tx	PEC3pt3_ty	PEC3pt3_tz	DELT2pt2a_tx	DELT2pt2a_ty	DELT2pt2a_tz	DELT2pt2_tx	DELT2pt2_ty	DELT2pt2_tz	LAT1pt2_tx	LAT1pt2_ty	LAT1pt2_tz	LAT1pt3_tx	LAT1pt3_ty	LAT1pt3_tz	LAT2pt2_tx	LAT2pt2_ty	LAT2pt2_tz	LAT2pt3_tx	LAT2pt3_ty	LAT2pt3_tz	LAT3pt2_tx	LAT3pt2_ty	LAT3pt2_tz	LAT3pt3_tx	LAT3pt3_ty	LAT3pt3_tz
      0.53333333	     -0.32929776	      0.13947499	     -0.13947499	      0.32929776	     -0.06667610	      0.53885278	      0.24221061	     -0.24221061	     -0.53885278	      0.06667610	     97.56944857	     77.96417252	     -1.70290813	    -16.48180583	     30.36317013	     42.64372776	      0.23324445	     -0.20157942	      0.27201652	     -0.10078971	     32.15874125	    -10.16760286	    -23.96453481	     -3.75487879	      1.83720793	      5.37540274	     30.30047502	    -14.61427581	      9.72084449	     -4.44064939	     15.10469693	     17.63826059	      9.47358870	     -7.60771126	      3.15524213	     26.40020246	      7.49914865	    -13.51736055	     -0.21753328	      5.11780635	      0.00090432	     -0.03108008	     -0.00486055	      0.01657135	     -0.01844830	     -0.00718291	      0.00439911	     -0.06693742	     -0.00348518	      0.00804748	     -0.18343908	     -0.00040256	     -0.00511724	      0.00148887	      0.00012555	      0.00017221	      0.00006889	      0.00034443	      0.00022043	      0.00066130	      0.00037198	     -0.00001103	     -0.00022944	     -0.00027533	      0.00255549	      0.00896589	      0.00623714	     -0.00835950	      0.02018408	     -0.01914455	      0.00255549	      0.00896589	      0.00623714	      0.00056308	      0.01871142	     -0.00983216	      0.00401538	      0.00498582	      0.01613012	      0.00000000	      0.00813179	      0.00000000	     -0.00731998	     -0.03382782	     -0.00670694	      0.01166329	     -0.00032642	     -0.00217728	     -0.00090958	      0.01524634	     -0.00623714	      0.00251218	      0.02200324	     -0.01819166	     -0.00610720	      0.01321061	     -0.00558744	     -0.01273416	      0.02789387	     -0.03122901	     -0.02390903	      0.01476989	     -0.00749323	     -0.01585273	      0.03222522	     -0.03902543
      0.56666667	     -0.32645503	      0.13827094	     -0.13827094	      0.32645503	     -0.06610050	      0.53420102	      0.24011968	     -0.24011968	     -0.53420102	      0.06610050	     98.12593334	     77.29113086	     -1.71262062	    -19.33876067	     30.38999913	     45.14172175	      0.22806901	     -0.21719572	      0.26694680	     -0.10859786	     33.19548447	     -8.78755354	    -28.09654256	      2.89474914	      3.34388721	      5.92744430	     29.14233617	    -13.29728138	     11.36714354	     -3.90567751	     14.68682641	     14.96880860	     11.02477412	     -7.40133158	      3.86979995	     21.12090379	      9.14624329	    -13.44278920	     -1.69539277	      5.08027754	      0.00090521	     -0.03108316	     -0.00486105	      0.01655380	     -0.01845559	     -0.00690263	      0.00421454	     -0.06705677	     -0.00368641	      0.00830198	     -0.18338435	     -0.00041297	     -0.00541699	      0.00159348	      0.00010235	      0.00018273	      0.00007309	      0.00036546	      0.00023389	      0.00070168	      0.00039469	     -0.00001186	     -0.00021770	     -0.00026124	      0.00253343	      0.00888849	      0.00618330	     -0.00828733	      0.02000983	     -0.01897928	      0.00253343	      0.00888849	      0.00618330	      0.00055821	      0.01854989	     -0.00974728	      0.00399026	      0.00494278	      0.01607017	      0.00000000	      0.00799097	      0.00000000	     -0.00725678	     -0.03353579	     -0.00659008	      0.01339181	     -0.00041171	     -0.00307206	     -0.00090173	      0.01511472	     -0.00618330	      0.00249049	      0.02181329	     -0.01803461	     -0.00605448	      0.01309656	     -0.00553920	     -0.01262423	      0.02765307	     -0.03095942	     -0.02370263	      0.01464239	     -0.00742854	     -0.01571588	      0.03194703	     -0.03868854
      0.60000000	     -0.32247147	      0.13658369	     -0.13658369	      0.32247147	     -0.06529391	      0.52768244	      0.23718962	     -0.23718962	     -0.52768244	      0.06529391	     98.89530289	     76.34798689	     -1.72604865	    -23.71072192	     30.66348312	     48.86080762	      0.19602716	     -0.23449510	      0.23458450	     -0.11724755	     32.94040235	     -8.87746761	    -28.45906468	      4.74481715	      2.95546149	      5.88213253	     28.89025801	    -11.62363805	     10.82522829	     -4.04823967	     15.08568329	     15.07258313	      9.80447627	     -7.33682829	      5.74653981	     20.50460150	      8.16608032	    -13.44352487	     -0.93332241	      5.09503600	      0.00091425	     -0.03111450	     -0.00486609	      0.01650119	     -0.01852989	     -0.00646911	      0.00393974	     -0.06723446	     -0.00398600	      0.00868444	     -0.18329960	     -0.00041977	     -0.00586328	      0.00175280	      0.00006154	      0.00019387	      0.00007755	      0.00038774	      0.00024816	      0.00074447	      0.00041876	     -0.00001168	     -0.00022070	     -0.00026484	      0.00250252	      0.00878003	      0.00610784	     -0.00818621	      0.01976566	     -0.01874769	      0.00250252	      0.00878003	      0.00610784	      0.00055140	      0.01832353	     -0.00962834	      0.00395479	      0.00488246	      0.01598436	      0.00000000	      0.00779577	      0.00000000	     -0.00716823	     -0.03312657	     -0.00642806	      0.01582573	     -0.00054854	     -0.00469169	     -0.00089073	      0.01493029	     -0.00610784	      0.00246010	      0.02154712	     -0.01781455	     -0.00598060	      0.01293675	     -0.00547161	     -0.01247018	      0.02731564	     -0.03058164	     -0.02341340	      0.01446371	     -0.00733790	     -0.01552410	      0.03155719	     -0.03821644
      0.63333333	     -0.32298417	      0.13680085	     -0.13680085	      0.32298417	     -0.06539772	      0.52852140	      0.23756673	     -0.23756673	     -0.52852140	      0.06539772	     98.78112795	     76.46937307	     -1.72405592	    -23.10082436	     30.64321972	     48.39383414	      0.20175034	     -0.22790049	      0.24048776	     -0.11395024	     32.99959371	     -8.99959476	    -28.27809425	      4.05424864	      2.98679565	      5.83100871	     28.79805970	    -11.85959030	     10.83415184	     -4.07785369	     14.94703579	     15.15438327	     10.02558510	     -7.25765753	      5.22608846	     20.85183766	      7.95026135	    -13.45084701	     -1.06986912	      5.08074547	      0.00091358	     -0.03111218	     -0.00486572	      0.01650949	     -0.01852438	     -0.00652458	      0.00397424	     -0.06721214	     -0.00394838	      0.00863619	     -0.18331045	     -0.00041948	     -0.00580725	      0.00173257	      0.00006707	      0.00018968	      0.00007587	      0.00037936	      0.00024279	      0.00072837	      0.00040971	     -0.00001172	     -0.00022001	     -0.00026401	      0.00250650	      0.00879399	      0.00611756	     -0.00819922	      0.01979709	     -0.01877750	      0.00250650	      0.00879399	      0.00611756	      0.00055228	      0.01835267	     -0.00964365	      0.00395937	      0.00489022	      0.01599552	      0.00000000	      0.00782075	      0.00000000	     -0.00717963	     -0.03317924	     -0.00644880	      0.01550129	     -0.00052903	     -0.00444875	     -0.00089214	      0.01495402	     -0.00611756	      0.00246402	      0.02158137	     -0.01784287	     -0.00599011	      0.01295732	     -0.00548031	     -0.01249001	      0.02735907	     -0.03063026	     -0.02345063	      0.01448671	     -0.00734956	     -0.01554879	      0.03160737	     -0.03827720
      0.66666667	     -0.32189541	      0.13633970	     -0.13633970	      0.32189541	     -0.06517727	      0.52673979	      0.23676591	     -0.23676591	     -0.52673979	      0.06517727	     99.01631845	     76.21159969	     -1.72816077	    -24.37158943	     30.74471020	     49.99001871	      0.19977937	     -0.22023312	      0.23846084	     -0.11011656	     32.99758570	     -9.19402851	    -26.39884126	      0.28110803	      3.05423508	      6.00031208	     29.20890404	    -12.99606506	     11.33475888	     -3.91859157	     14.06883941	     15.54885139	     10.20682016	     -7.17884476	      4.44972388	     23.13624947	      7.98844202	    -13.45497926	      0.06516243	      5.04598593	      0.00091694	     -0.03112381	     -0.00486759	      0.01647892	     -0.01855195	     -0.00633362	      0.00385630	     -0.06728841	     -0.00407696	      0.00880142	     -0.18327308	     -0.00041976	     -0.00599879	      0.00180203	      0.00004766	      0.00018471	      0.00007388	      0.00036942	      0.00023643	      0.00070929	      0.00039898	     -0.00001172	     -0.00022004	     -0.00026405	      0.00249805	      0.00876434	      0.00609693	     -0.00817158	      0.01973035	     -0.01871420	      0.00249805	      0.00876434	      0.00609693	      0.00055042	      0.01829080	     -0.00961114	      0.00394963	      0.00487374	      0.01597177	      0.00000000	      0.00776775	      0.00000000	     -0.00715543	     -0.03306739	     -0.00640480	      0.01617116	     -0.00056985	     -0.00496155	     -0.00088914	      0.01490361	     -0.00609693	      0.00245571	      0.02150863	     -0.01778272	     -0.00596991	      0.01291364	     -0.00546184	     -0.01244791	      0.02726684	     -0.03052701	     -0.02337158	      0.01443788	     -0.00732479	     -0.01549637	      0.03150082	     -0.03814817
      0.70000000	     -0.31755957	      0.13450324	     -0.13450324	      0.31755957	     -0.06429935	      0.51964475	      0.23357674	     -0.23357674	     -0.51964475	      0.06429935	    100.06469068	     75.18505008	     -1.74645832	    -29.59726936	     31.07471066	     55.23483038	      0.16726412	     -0.23706126	      0.20410134	     -0.11853063	     33.32057489	     -9.75941795	    -26.07591488	      0.08677598	      2.59703696	      6.08622672	     29.27296854	    -13.27713434	     11.11529963	     -3.72343657	     14.25707233	     15.55938500	     10.23594104	     -7.02005014	      4.70788314	     23.36525641	      8.16420835	    -13.40014359	      0.36038537	      5.07852415	      0.00092785	     -0.03116164	     -0.00487369	      0.01633739	     -0.01864160	     -0.00568098	      0.00346877	     -0.06753899	     -0.00449946	      0.00934988	     -0.18314519	     -0.00040718	     -0.00662816	      0.00203579	     -0.00002584	      0.00019548	      0.00007819	      0.00039097	      0.00025022	      0.00075066	      0.00042224	     -0.00001195	     -0.00021620	     -0.00025945	      0.00246440	      0.00864629	      0.00601481	     -0.00806151	      0.01946459	     -0.01846212	      0.00246440	      0.00864629	      0.00601481	      0.00054300	      0.01804443	     -0.00948168	      0.00391059	      0.00480809	      0.01587562	      0.00000000	      0.00755849	      0.00000000	     -0.00705905	     -0.03262199	     -0.00623105	      0.01869840	     -0.00074337	     -0.00730371	     -0.00087716	      0.01470287	     -0.00601481	      0.00242263	      0.02121891	     -0.01754319	     -0.00588950	      0.01273970	     -0.00538827	     -0.01228024	      0.02689956	     -0.03011581	     -0.02305677	      0.01424340	     -0.00722612	     -0.01528764	      0.03107651	     -0.03763433
